<svg width="45" height="37" viewBox="0 0 45 37" fill="none" xmlns="http://www.w3.org/2000/svg">
<path id="quote" d="M8.63254 0C3.86629 0 3.95311e-08 3.76476 8.83049e-08 8.40973C1.37049e-07 13.0519 3.86629 16.8195 8.63254 16.8195C17.2621 16.8195 11.5101 33.0755 3.47303e-07 33.0755L3.88512e-07 37C20.5423 37.0028 28.5916 0 8.63254 0ZM33.4999 0C28.7367 0 24.8704 3.76476 24.8704 8.40973C24.8704 13.0519 28.7367 16.8195 33.4999 16.8195C42.1325 16.8195 36.3804 33.0755 24.8704 33.0755L24.8704 37C45.4097 37.0028 53.459 0 33.4999 0Z" fill="#EAEAEA"/>
</svg>
