<svg width="35" height="35" viewBox="0 0 35 35" fill="none" xmlns="http://www.w3.org/2000/svg">
<g id="akar-icons:zoom-in">
<g id="Group">
<path id="Vector" d="M30 30L23.6252 23.6138L30 30ZM27.1579 15.0789C27.1579 18.2825 25.8853 21.3548 23.6201 23.6201C21.3548 25.8853 18.2825 27.1579 15.0789 27.1579C11.8754 27.1579 8.80308 25.8853 6.53784 23.6201C4.2726 21.3548 3 18.2825 3 15.0789C3 11.8754 4.2726 8.80308 6.53784 6.53784C8.80308 4.2726 11.8754 3 15.0789 3C18.2825 3 21.3548 4.2726 23.6201 6.53784C25.8853 8.80308 27.1579 11.8754 27.1579 15.0789V15.0789Z" stroke="white" stroke-width="2" stroke-linecap="round"/>
<path id="Vector_2" d="M15 11V15M15 15V19M15 15H19M15 15H11" stroke="white" stroke-width="2" stroke-linecap="square"/>
</g>
</g>
</svg>
