<svg width="13" height="13" viewBox="0 0 13 13" fill="none" xmlns="http://www.w3.org/2000/svg">
<path id="Vector" fill-rule="evenodd" clip-rule="evenodd" d="M1.5319 0.414532C1.67406 0.272573 1.84477 0.162449 2.0327 0.0914594C2.22064 0.0204694 2.42152 -0.00976588 2.62203 0.00275711C2.82253 0.0152801 3.01809 0.0702755 3.19573 0.164099C3.37338 0.257922 3.52906 0.388431 3.65246 0.546976L5.11085 2.42069C5.37815 2.76439 5.4724 3.2121 5.36678 3.63462L4.92235 5.41407C4.89938 5.50624 4.90062 5.60278 4.92596 5.69433C4.9513 5.78587 4.99988 5.86931 5.06697 5.93654L7.06322 7.93294C7.13053 8.00018 7.2141 8.04884 7.30579 8.07419C7.39748 8.09953 7.49418 8.1007 7.58646 8.07757L9.36496 7.63311C9.57346 7.58098 9.79107 7.57693 10.0014 7.62127C10.2116 7.66561 10.4091 7.75718 10.5788 7.88906L12.4524 9.34675C13.1259 9.87084 13.1877 10.8662 12.5848 11.4683L11.7447 12.3085C11.1435 12.9097 10.2449 13.1738 9.40721 12.8789C7.26324 12.1244 5.31663 10.8969 3.71177 9.28744C2.10249 7.68269 0.875099 5.73621 0.120629 3.59237C-0.173487 2.75545 0.0905673 1.85597 0.691798 1.2547L1.5319 0.414532Z" fill="#008139"/>
</svg>
