<svg width="18" height="18" viewBox="0 0 18 18" fill="none" xmlns="http://www.w3.org/2000/svg">
<path id="vk" d="M3.33982 0C2.4551 0.00344753 1.60761 0.356427 0.982019 0.982019C0.356427 1.60761 0.00344753 2.4551 0 3.33982V14.6602C0.00344753 15.5449 0.356427 16.3924 0.982019 17.018C1.60761 17.6436 2.4551 17.9966 3.33982 18H14.6602C15.5449 17.9966 16.3924 17.6436 17.018 17.018C17.6436 16.3924 17.9966 15.5449 18 14.6602V3.33982C17.9966 2.4551 17.6436 1.60761 17.018 0.982019C16.3924 0.356427 15.5449 0.00344753 14.6602 0H3.33982ZM3.33982 1.63636H14.6602C15.6093 1.63636 16.3636 2.39073 16.3636 3.33982V14.6602C16.3636 15.6093 15.6093 16.3636 14.6602 16.3636H3.33982C3.11572 16.365 2.89358 16.322 2.68627 16.2368C2.47896 16.1517 2.29061 16.0263 2.13215 15.8679C1.97368 15.7094 1.84826 15.521 1.76315 15.3137C1.67805 15.1064 1.63495 14.8843 1.63636 14.6602V3.33982C1.63636 2.39073 2.39073 1.63636 3.33982 1.63636ZM8.77009 5.91545C8.16873 5.90973 7.65736 5.91545 7.37018 6.05618C7.17791 6.14946 7.03145 6.35973 7.12064 6.36955C7.23273 6.38591 7.48473 6.43991 7.61973 6.62236C7.79155 6.85555 7.78582 7.38327 7.78582 7.38327C7.78582 7.38327 7.88155 8.83391 7.55182 9.01636C7.32518 9.14073 7.01509 8.88791 6.34418 7.73427C6.00218 7.14027 5.74364 6.48491 5.74364 6.48491C5.74364 6.48491 5.69455 6.363 5.60618 6.29918C5.49736 6.21982 5.34682 6.19364 5.34682 6.19364L3.74564 6.20345C3.74564 6.20345 3.50591 6.21327 3.42 6.31555C3.33982 6.41127 3.41345 6.59945 3.41345 6.59945C3.41345 6.59945 4.66609 9.53018 6.08482 11.007C7.38573 12.3627 8.86255 12.2727 8.86255 12.2727H9.53345C9.53345 12.2727 9.73473 12.2506 9.837 12.1418C9.93355 12.0395 9.93027 11.8473 9.93027 11.8473C9.93027 11.8473 9.91718 10.9497 10.3328 10.8155C10.7452 10.6871 11.2688 11.6845 11.8285 12.0682C12.2539 12.3586 12.5763 12.2948 12.5763 12.2948L14.0727 12.2727C14.0727 12.2727 14.8525 12.2245 14.4818 11.6075C14.4532 11.5601 14.2675 11.1543 13.3732 10.323C12.4331 9.45409 12.5583 9.59482 13.689 8.08936C14.3763 7.17218 14.6512 6.61255 14.5645 6.36955C14.4826 6.14291 13.977 6.20345 13.977 6.20345L12.2924 6.21327C12.2924 6.21327 12.168 6.19691 12.0755 6.25173C12.012 6.29894 11.9613 6.36141 11.9283 6.43336C11.9283 6.43336 11.6599 7.14273 11.3048 7.74736C10.557 9.01882 10.2535 9.08918 10.1324 9.00982C9.84764 8.82409 9.918 8.26773 9.918 7.875C9.918 6.63791 10.1062 6.12655 9.55391 5.99318C9.37145 5.94818 9.23727 5.91955 8.77091 5.91545H8.77009Z" fill="#8A8A8A"/>
</svg>
