<svg width="63" height="92" viewBox="0 0 63 92" fill="none" xmlns="http://www.w3.org/2000/svg">
<path id="Vector" d="M31.5 0C14.1309 0 0 14.1866 0 31.6242V31.7443C0 37.995 1.66979 44.1459 4.82877 49.5322L28.9556 90.6697C29.4375 91.4912 30.315 91.9968 31.2644 92H31.2737C32.2197 92 33.0964 91.5011 33.5823 90.6857L58.0484 49.6201C61.2877 44.1828 63 37.96 63 31.624C62.9998 14.1866 48.8689 0 31.5 0ZM31.2735 46C23.6975 46 17.5341 39.8121 17.5341 32.2064C17.5341 24.6008 23.6977 18.4129 31.2735 18.4129C38.8493 18.4129 45.0129 24.6008 45.0129 32.2064C45.0129 39.8121 38.8493 46 31.2735 46Z" fill="#008139"/>
</svg>
