<svg width="14" height="22" viewBox="0 0 14 22" fill="none" xmlns="http://www.w3.org/2000/svg">
<path id="pin" d="M7 0C3.1332 0 0 3.06679 0 6.86554C0 13.4339 7 22 7 22C7 22 14 13.4325 14 6.86554C14 3.06817 10.8668 0 7 0ZM7 10.6643C5.99748 10.6643 5.03602 10.2729 4.32714 9.57624C3.61825 8.87958 3.22 7.9347 3.22 6.94947C3.22 5.96424 3.61825 5.01936 4.32714 4.32269C5.03602 3.62603 5.99748 3.23465 7 3.23465C8.00252 3.23465 8.96398 3.62603 9.67286 4.32269C10.3818 5.01936 10.78 5.96424 10.78 6.94947C10.78 7.9347 10.3818 8.87958 9.67286 9.57624C8.96398 10.2729 8.00252 10.6643 7 10.6643Z" fill="#FFC700"/>
</svg>
