<svg width="19" height="19" viewBox="0 0 19 19" fill="none" xmlns="http://www.w3.org/2000/svg">
<path id="&#208;&#162;&#208;&#181;&#208;&#187;&#208;&#181;&#209;&#132;&#208;&#190;&#208;&#189;" d="M18.215 14.0622L16.3179 12.1652C15.9745 11.822 15.5445 11.5785 15.0736 11.4605C14.6027 11.3426 14.1087 11.3547 13.6441 11.4955C13.1796 11.6363 12.7619 11.9006 12.4358 12.2601C12.1096 12.6196 11.8872 13.0609 11.7921 13.5369C8.66376 12.952 5.62111 9.92189 5.43172 7.21358C5.96356 7.11575 6.45302 6.85835 6.83502 6.4756C7.33798 5.97259 7.62053 5.29039 7.62053 4.57908C7.62053 3.86776 7.33798 3.18557 6.83502 2.68256L4.93845 0.785492C4.43542 0.282546 3.75322 0 3.04188 0C2.33054 0 1.64833 0.282546 1.14531 0.785492C-4.54494 6.4756 12.5247 23.5448 18.215 17.8547C18.7176 17.3517 19 16.6696 19 15.9585C19 15.2473 18.7176 14.5653 18.215 14.0622Z" fill="#FFC700"/>
</svg>
